<svg width="234" height="80" viewBox="0 0 234 80" fill="none" xmlns="http://www.w3.org/2000/svg">
<path d="M32.3845 43.6787L26.5281 61.4312H19L38.1678 5.01367H46.9523L66.1932 61.4312H58.409L52.3819 43.6787H32.3845ZM50.8818 37.9807L45.3661 21.7413C44.1097 18.0565 43.28 14.7135 42.4382 11.4436H42.2795C41.4377 14.7866 40.5226 18.2151 39.4366 21.6558L33.9219 37.9686L50.8818 37.9807ZM71.9038 34.1375C71.9038 28.952 71.7455 24.7549 71.562 20.9116H78.1752L78.517 27.8661H78.6752C81.6894 22.9248 86.4594 19.9964 93.0726 19.9964C102.87 19.9964 110.227 28.2809 110.227 40.5918C110.227 55.1597 101.357 62.3462 91.8156 62.3462C86.4594 62.3462 81.7742 60.0036 79.3462 55.9894H79.1879V78H71.9038V34.1375ZM79.1753 44.9353C79.1753 46.0334 79.3335 47.0217 79.5171 47.949C80.859 53.0491 85.2884 56.5751 90.5711 56.5751C98.3553 56.5751 102.882 50.2183 102.882 40.9212C102.882 32.7953 98.6111 25.8652 90.8269 25.8652C85.8125 25.8652 81.1273 29.4644 79.688 34.9915C79.431 35.9066 79.1879 37.0047 79.1879 38.0051L79.1753 44.9353ZM117.841 34.1375C117.841 28.952 117.682 24.7549 117.499 20.9116H124.112L124.454 27.8661H124.612C127.626 22.9248 132.396 19.9964 139.009 19.9964C148.806 19.9964 156.164 28.2809 156.164 40.5918C156.164 55.1597 147.294 62.3462 137.752 62.3462C132.396 62.3462 127.711 60.0036 125.283 55.9894H125.125V78H117.841V34.1375ZM125.125 44.9353C125.125 46.0334 125.283 47.0217 125.466 47.949C126.808 53.0491 131.237 56.5751 136.521 56.5751C144.305 56.5751 148.83 50.2183 148.83 40.9212C148.83 32.7953 144.56 25.8652 136.776 25.8652C131.762 25.8652 127.077 29.4644 125.637 34.9915C125.38 35.9066 125.136 37.0047 125.136 38.0051L125.125 44.9353ZM163.79 2H171.159V61.4189H163.79V2ZM185.97 42.5073C186.13 52.4633 192.499 56.5751 199.855 56.5751C205.126 56.5751 208.311 55.66 211.069 54.4887L212.324 59.7596C209.738 60.9309 205.297 62.273 198.855 62.273C186.385 62.273 178.93 54.0738 178.93 41.8485C178.93 29.6231 186.13 19.9964 197.928 19.9964C211.153 19.9964 214.668 31.624 214.668 39.0789C214.668 40.5918 214.509 41.7509 214.412 42.5073H185.97ZM207.567 37.2365C207.652 32.5513 205.639 25.2674 197.355 25.2674C189.9 25.2674 186.641 32.1364 186.056 37.2365H207.567Z" fill="black"/>
</svg>
