<svg version="1.1" xmlns="http://www.w3.org/2000/svg" xmlns:xlink="http://www.w3.org/1999/xlink" x="0px" y="0px" viewBox="0 0 664.7 144.6" enable-background="new 0 0 664.7 144.6" xml:space="preserve" width="100%"><g><path d="M433.4,41.9h-54.6c0,0-9.9,0-13.5,7.2v-7.2h-24.4v101.6h24.4V78.1c0-8,6.5-14.5,14.5-14.5H426 c8,0,14.5,6.5,14.5,14.5v65.4h23.9V70.8C464.5,70.8,462.7,41.9,433.4,41.9"></path><rect x="5" y="12.6" width="24.4" height="130.9"></rect><rect x="291.6" y="41.8" width="24.5" height="101.8"></rect><rect x="489.2" y="41.9" width="24.4" height="101.6"></rect><path d="M146.6,41.9H92c0,0-9.9,0-13.5,7.2v-7.2H54.1v101.6h24.4V78.1c0-8,6.5-14.5,14.5-14.5h46.3 c8,0,14.5,6.5,14.5,14.5v65.4h23.9V70.8C177.8,70.8,176,41.9,146.6,41.9"></path><rect x="291.6" y="1.5" width="24.5" height="21.1"></rect><rect x="489.2" y="1.5" width="24.4" height="21.1"></rect><polygon points="660.5,41.9 630,41.9 594.9,77.4 559.8,41.9 529.4,41.9 579.6,92.8 529.4,143.5 560.2,143.5 594.9,108.3 629.7,143.5 660.5,143.5 610.2,92.8"></polygon><path d="M237.3,25.1c1.5-1.6,3.5-2.5,5.9-2.5h27.3V1.5h-21.6c-0.3,0.1-3.5-0.1-7.8,0.1c-0.2,0-0.3,0-0.4,0 c-9,0-17.5,3.3-22.9,9c-4.6,4.8-6.9,11.5-6.9,16.8c0,10.4,0,14.5,0,14.5h-31.7c0,0,8.7,3.2,14.7,21.7h17v79.9H235V63.6h35.4V41.9 h-18.1H235V33c0-0.6,0-1.2,0.1-1.8c0-0.2-0.1-0.4-0.1-0.5c0-1.7,0.6-3.3,1.5-4.6C236.8,25.7,237,25.4,237.3,25.1"></path></g></svg>