<?xml version="1.0" encoding="UTF-8"?>
<!DOCTYPE svg PUBLIC "-//W3C//DTD SVG 1.1//EN" "http://www.w3.org/Graphics/SVG/1.1/DTD/svg11.dtd">
<!-- Creator: CorelDRAW 2019 (64-Bit) -->
<svg xmlns="http://www.w3.org/2000/svg" xml:space="preserve" width="172.406mm" height="44.6185mm" version="1.1" style="shape-rendering:geometricPrecision; text-rendering:geometricPrecision; image-rendering:optimizeQuality; fill-rule:evenodd; clip-rule:evenodd"
viewBox="0 0 172.4058 44.6185"
 xmlns:xlink="http://www.w3.org/1999/xlink"
 xmlns:xodm="http://www.corel.com/coreldraw/odm/2003">
 <defs>
  <style type="text/css">
   <![CDATA[
    .fil0 {fill:#F1DD01}
    .fil1 {fill:black}
   ]]>
  </style>
 </defs>
 <g id="Layer_x0020_1">
  <metadata id="CorelCorpID_0Corel-Layer"/>
  <g id="_848266576">
   <polygon class="fil0" points="-0,44.6185 172.4058,44.6185 172.4058,30.8261 -0,30.8261 "/>
   <path class="fil1" d="M67.3073 8.4824c0,2.2242 -0.8792,2.7929 -3.0344,2.7929l-3.0689 0 0 -5.3619 3.1036 0c2.2584,0 2.9997,0.5864 2.9997,2.569zm7.6722 -0.276l0 0c0,-5.224 -3.6552,-7.7584 -10.5513,-7.7584l-10.5513 0 0 23.4817 7.3271 0 0 -7.7409 3.0343 0 3.9829 7.7409 8.6374 0 -6.0171 -9.1374c2.6377,-0.9307 4.138,-3.5343 4.138,-6.5685l0 -0.0174z"/>
   <polygon class="fil1" points="134.0108,18.1371 134.0108,14.5683 143.5624,14.5683 143.5624,9.4308 134.0108,9.4308 134.0108,6.2927 145.5619,6.2927 145.4421,0.4313 126.6835,0.4313 126.6835,23.9297 145.9068,23.9297 146.0276,18.1371 "/>
   <polygon class="fil1" points="122.2704,23.9297 122.2704,0.4313 114.9773,0.4313 114.9773,9.1203 107.1676,9.1203 107.1676,0.4313 99.8399,0.4313 99.8399,23.9297 107.1676,23.9297 107.1676,15.1029 114.9773,15.1029 114.9773,23.9297 "/>
   <path class="fil1" d="M96.4436 0.9652c-1.6891,-0.5687 -4.1028,-0.9652 -6.3271,-0.9652 -9.0169,0 -13.0338,4.6721 -13.0338,12.0858 0,8.0165 4.2582,12.2752 12.3958,12.2752 2.4137,0 5.0341,-0.5692 7.0171,-1.4485l-0.7759 -5.3787c-1.4999,0.586 -3.3276,0.9653 -5.2586,0.9653 -4.4823,0 -5.6373,-1.5345 -5.6373,-6.396 0,-4.6033 1.0686,-6.1379 5.5685,-6.1379 2.1033,0 3.8447,0.3101 5.3274,0.724l0.7239 -5.724z"/>
   <path class="fil1" d="M162.8539 8.4824c0,2.2242 -0.8788,2.7929 -3.0338,2.7929l-3.0685 0 0 -5.3619 3.1032 0c2.258,0 2.9991,0.5864 2.9991,2.569zm7.6734 -0.276l0 0c0,-5.224 -3.6554,-7.7584 -10.5516,-7.7584l-10.5514 0 0 23.4817 7.3273 0 0 -7.7409 3.0337 0 3.9834 7.7409 8.6371 0 -6.0175 -9.1374c2.6388,-0.9307 4.139,-3.5343 4.139,-6.5685l0 -0.0174z"/>
   <path class="fil1" d="M40.4119 14.5337l-5.3788 0 1.9651 -6.1374 0.7241 -2.4483 0.0866 0 0.6893 2.4483 1.9137 6.1374zm11.1547 9.396l0 0 -9.5342 -23.4984 -8.4822 0 -9.3272 23.4812 7.7925 0 1.2591 -3.9477 8.827 0 1.224 3.9477 8.241 0 0 0.0172z"/>
   <polygon class="fil1" points="24.861,5.4134 30.3091,5.4134 30.3091,0.4313 24.861,0.4313 "/>
   <polygon class="fil1" points="45.3086,5.4134 50.7565,5.4134 50.7565,0.4313 45.3086,0.4313 "/>
   <polygon class="fil1" points="15.3441,0.4313 9.6722,9.2409 7.3272,9.2409 7.3272,0.4313 -0,0.4313 -0,23.9297 7.3272,23.9297 7.3272,14.7582 9.5857,14.7582 15.2755,23.9297 24.2059,23.9297 16.1028,11.5512 23.7747,0.4313 "/>
  </g>
 </g>
</svg>
