<svg width="44" height="45" viewBox="0 0 44 45" fill="none" xmlns="http://www.w3.org/2000/svg">
<g clip-path="url(#clip0_13488_25503)">
<path d="M31.167 0.261719H12.2421C10.5466 0.261719 9.16699 1.64136 9.16699 3.33683V41.1866C9.16699 42.8821 10.5466 44.2617 12.2421 44.2617H31.167C32.8625 44.2617 34.2421 42.8821 34.2421 41.1866V3.33683C34.2421 1.64136 32.8625 0.261719 31.167 0.261719ZM32.8229 41.1866C32.8229 42.0994 32.0798 42.8425 31.167 42.8425H12.2421C11.3293 42.8425 10.5862 42.0994 10.5862 41.1866V3.33683C10.5862 2.42407 11.3293 1.68096 12.2421 1.68096H31.167C32.0798 1.68096 32.8229 2.42407 32.8229 3.33683V41.1866Z" fill="#333333"/>
<path d="M21.705 33.3799C20.0095 33.3799 18.6299 34.7595 18.6299 36.455C18.6299 38.1505 20.0095 39.5301 21.705 39.5301C23.4005 39.5301 24.7801 38.1505 24.7801 36.455C24.7801 34.7595 23.4005 33.3799 21.705 33.3799ZM21.705 38.1109C20.7922 38.1109 20.0491 37.3677 20.0491 36.455C20.0491 35.5422 20.7922 34.7991 21.705 34.7991C22.6178 34.7991 23.3609 35.5422 23.3609 36.455C23.3609 37.3677 22.6178 38.1109 21.705 38.1109Z" fill="#FBC100"/>
</g>
<defs>
<clipPath id="clip0_13488_25503">
<rect width="44" height="44" fill="white" transform="translate(0 0.261719)"/>
</clipPath>
</defs>
</svg>
