<svg width="44" height="45" viewBox="0 0 44 45" fill="none" xmlns="http://www.w3.org/2000/svg">
<g clip-path="url(#clip0_13488_22699)">
<path d="M40.8431 34.6623V16.8542C40.8431 16.4558 40.5201 16.1328 40.1217 16.1328C39.3978 16.1363 38.675 16.1846 37.9574 16.2772V15.4114C37.9479 7.04856 31.1706 0.27123 22.8078 0.261719H21.3649C13.0018 0.27123 6.22478 7.04856 6.21527 15.4114V35.0223C5.35366 35.327 4.77597 36.14 4.77244 37.0538V37.7752H4.6879C3.13517 37.7752 1.75646 38.7685 1.26542 40.2416L0.481305 42.5972C0.408036 42.817 0.445023 43.0586 0.580288 43.2467C0.715905 43.4348 0.933597 43.5465 1.16538 43.5465H15.5936C15.8254 43.5465 16.0428 43.4348 16.1784 43.2467C16.3136 43.0586 16.3506 42.817 16.2774 42.5972L15.4925 40.2409C15.0026 38.7675 13.6238 37.7738 12.0708 37.7752H11.2652V37.0538C11.2613 36.14 10.6839 35.327 9.82233 35.0223V16.4322C9.73779 10.1597 14.3442 4.8093 20.5597 3.96107C24.0516 3.52322 27.5632 4.60605 30.2015 6.93479C32.8403 9.26353 34.3511 12.6138 34.3504 16.1328V17.093C27.0034 19.5384 22.0571 26.4249 22.0863 34.1681V42.8251C22.0863 43.2235 22.4094 43.5465 22.8078 43.5465H36.0912C37.6869 44.5011 39.6785 44.5 41.2732 43.544C42.8682 42.5876 43.8076 40.8317 43.7175 38.9742C43.6276 37.1168 42.5226 35.4598 40.8431 34.6623ZM14.1247 40.6975L14.5922 42.1036H2.16648L2.63392 40.6975C2.92875 39.8137 3.75619 39.2176 4.6879 39.218H12.0708C13.0025 39.2176 13.8299 39.8137 14.1247 40.6975ZM6.21527 37.7752V37.0538C6.21527 36.6554 6.53828 36.3323 6.93668 36.3323H9.10092C9.49932 36.3323 9.82233 36.6554 9.82233 37.0538V37.7752H6.21527ZM31.78 6.43846C28.7894 3.44643 24.5842 2.00361 20.3867 2.52917C13.447 3.4651 8.29532 9.43014 8.37951 16.4322V34.8895H7.65809V15.4114C7.6669 7.84501 13.7982 1.71335 21.3649 1.70454H22.8078C30.3741 1.71335 36.5058 7.84501 36.5146 15.4114V16.5072C36.2716 16.5562 36.0289 16.6045 35.7932 16.6622V16.1328C35.8013 12.4954 34.3564 9.00568 31.78 6.43846ZM23.5292 34.1681C23.5003 26.8582 28.2835 20.4003 35.2845 18.297C35.9651 18.0889 36.659 17.9272 37.3614 17.813C38.0356 17.6961 38.7165 17.6239 39.4003 17.5964V34.2259C37.4093 33.9339 35.4357 34.8539 34.3793 36.5662C33.3228 38.2789 33.3863 40.4555 34.5406 42.1036H23.5292V34.1681ZM38.6788 42.8251C36.6865 42.8251 35.0718 41.21 35.0718 39.218C35.0718 37.226 36.6865 35.6109 38.6788 35.6109C40.6708 35.6109 42.2859 37.226 42.2859 39.218C42.2834 41.2093 40.6698 42.8226 38.6788 42.8251Z" fill="#333333"/>
<path d="M38.6796 36.332C37.0857 36.332 35.7939 37.6241 35.7939 39.2177C35.7939 40.8113 37.0857 42.1033 38.6796 42.1033C40.2732 42.1033 41.5653 40.8113 41.5653 39.2177C41.5653 37.6241 40.2732 36.332 38.6796 36.332ZM38.6796 40.6605C37.8828 40.6605 37.2368 40.0145 37.2368 39.2177C37.2368 38.4209 37.8828 37.7749 38.6796 37.7749C39.4764 37.7749 40.1224 38.4209 40.1224 39.2177C40.1224 40.0145 39.4764 40.6605 38.6796 40.6605Z" fill="#FBC100"/>
<path d="M37.2361 24.0687C37.6345 24.0687 37.9575 23.7457 37.9575 23.3473V20.4616C37.9575 20.0632 37.6345 19.7402 37.2361 19.7402C36.8377 19.7402 36.5146 20.0632 36.5146 20.4616V23.3473C36.5146 23.7457 36.8377 24.0687 37.2361 24.0687Z" fill="#FBC100"/>
<path d="M37.2361 27.6757C37.6345 27.6757 37.9575 27.3527 37.9575 26.9543V25.5115C37.9575 25.1131 37.6345 24.79 37.2361 24.79C36.8377 24.79 36.5146 25.1131 36.5146 25.5115V26.9543C36.5146 27.3527 36.8377 27.6757 37.2361 27.6757Z" fill="#FBC100"/>
</g>
<defs>
<clipPath id="clip0_13488_22699">
<rect width="44" height="44" fill="white" transform="translate(0 0.261719)"/>
</clipPath>
</defs>
</svg>
