<svg width="45" height="45" viewBox="0 0 45 45" fill="none" xmlns="http://www.w3.org/2000/svg">
<g clip-path="url(#clip0_13488_25452)">
<path d="M42.467 6.12793H2.86699C1.65205 6.12793 0.666992 7.11299 0.666992 8.32793V20.0613C0.666992 21.2762 1.65205 22.2613 2.86699 22.2613H42.467C43.6819 22.2613 44.667 21.2762 44.667 20.0613V8.32793C44.667 7.11299 43.6819 6.12793 42.467 6.12793ZM2.86699 7.5946H42.467C42.872 7.5946 43.2003 7.92295 43.2003 8.32793V17.8613H2.13366V8.32793C2.13366 7.92295 2.46201 7.5946 2.86699 7.5946ZM42.467 20.7946H2.86699C2.46201 20.7946 2.13366 20.4662 2.13366 20.0613V19.3279H43.2003V20.0613C43.2003 20.4662 42.872 20.7946 42.467 20.7946Z" fill="#333333"/>
<path d="M23.8696 25.9286C23.8696 25.5237 23.5412 25.1953 23.1362 25.1953C22.7312 25.1953 22.4029 25.5237 22.4029 25.9286C22.4197 26.4998 22.2826 27.0652 22.0061 27.5654C21.2839 28.9948 21.2839 30.6828 22.0061 32.1122C22.535 33.1406 22.535 34.3616 22.0061 35.39C21.6334 36.0882 21.4465 36.8706 21.464 37.662C21.464 38.067 21.7924 38.3953 22.1974 38.3953C22.6023 38.3953 22.9307 38.067 22.9307 37.662C22.9139 37.0901 23.051 36.5244 23.3274 36.0238C24.0493 34.594 24.0493 32.9068 23.3274 31.477C22.7986 30.449 22.7986 29.2286 23.3274 28.2006C23.7005 27.5024 23.8875 26.72 23.8696 25.9286Z" fill="#333333"/>
<path d="M12.1362 25.9286C12.1362 25.5237 11.8078 25.1953 11.4028 25.1953C10.9978 25.1953 10.6695 25.5237 10.6695 25.9286C10.6863 26.4998 10.5492 27.0652 10.2727 27.5654C9.55051 28.9948 9.55051 30.6828 10.2727 32.1122C10.8016 33.1406 10.8016 34.3616 10.2727 35.39C9.89999 36.0882 9.71308 36.8706 9.73062 37.662C9.73062 38.067 10.059 38.3953 10.464 38.3953C10.8689 38.3953 11.1973 38.067 11.1973 37.662C11.1805 37.0901 11.3176 36.5244 11.594 36.0238C12.3159 34.594 12.3159 32.9068 11.594 31.477C11.0652 30.449 11.0652 29.2286 11.594 28.2006C11.9671 27.5024 12.1541 26.72 12.1362 25.9286Z" fill="#333333"/>
<path d="M35.603 25.9286C35.603 25.5237 35.2746 25.1953 34.8696 25.1953C34.4646 25.1953 34.1363 25.5237 34.1363 25.9286C34.1531 26.4998 34.016 27.0652 33.7395 27.5654C33.0173 28.9948 33.0173 30.6828 33.7395 32.1122C34.2684 33.1406 34.2684 34.3616 33.7395 35.39C33.3668 36.0882 33.1799 36.8706 33.1974 37.662C33.1974 38.067 33.5258 38.3953 33.9308 38.3953C34.3357 38.3953 34.6641 38.067 34.6641 37.662C34.6473 37.0901 34.7844 36.5244 35.0608 36.0238C35.7827 34.594 35.7827 32.9068 35.0608 31.477C34.532 30.449 34.532 29.2286 35.0608 28.2006C35.4339 27.5024 35.6209 26.72 35.603 25.9286Z" fill="black"/>
<path d="M32.2001 17.1285H41.0001C41.4051 17.1285 41.7335 16.8002 41.7335 16.3952V13.4618C41.7335 13.0569 41.4051 12.7285 41.0001 12.7285H32.2001C31.7951 12.7285 31.4668 13.0569 31.4668 13.4618V16.3952C31.4668 16.8002 31.7951 17.1285 32.2001 17.1285ZM32.9335 14.1952H40.2668V15.6618H32.9335V14.1952Z" fill="#FBC100"/>
</g>
<defs>
<clipPath id="clip0_13488_25452">
<rect width="44" height="44" fill="white" transform="translate(0.666992 0.261719)"/>
</clipPath>
</defs>
</svg>
