<svg width="44" height="44" viewBox="0 0 44 44" fill="none" xmlns="http://www.w3.org/2000/svg">
<path d="M41.2513 31.2941H39.292V9.00235C39.2912 8.20635 39.0034 7.44319 38.4917 6.88033C37.98 6.31747 37.2862 6.00087 36.5626 6H7.43743C6.71379 6.00087 6.02002 6.31747 5.50832 6.88033C4.99663 7.44319 4.70881 8.20635 4.70802 9.00235V31.2941H2.74866C2.65033 31.2941 2.55295 31.3153 2.4621 31.3567C2.37124 31.398 2.28868 31.4587 2.21915 31.5352C2.14962 31.6117 2.09448 31.7025 2.05687 31.8024C2.01927 31.9024 1.99994 32.0095 2 32.1176V33.2706C2.00113 34.4521 2.42833 35.5849 3.18786 36.4204C3.94739 37.2559 4.9772 37.7258 6.05134 37.7271H37.9487C39.0228 37.7258 40.0526 37.2559 40.8121 36.4204C41.5717 35.5849 41.9989 34.4521 42 33.2706V32.1176C42.0001 32.0095 41.9807 31.9024 41.9431 31.8024C41.9055 31.7025 41.8504 31.6117 41.7808 31.5352C41.7113 31.4587 41.6288 31.398 41.5379 31.3567C41.447 31.3153 41.3497 31.2941 41.2513 31.2941ZM6.20535 9.00235C6.20569 8.64302 6.33561 8.29851 6.56659 8.04443C6.79758 7.79034 7.11077 7.64743 7.43743 7.64706H36.5626C36.8892 7.64743 37.2024 7.79034 37.4334 8.04443C37.6644 8.29851 37.7943 8.64302 37.7947 9.00235V31.2941H26.3807C26.2824 31.2941 26.185 31.3153 26.0942 31.3567C26.0033 31.398 25.9208 31.4587 25.8512 31.5352C25.7817 31.6117 25.7266 31.7025 25.689 31.8024C25.6514 31.9024 25.632 32.0095 25.6321 32.1176V32.6071C25.6321 32.756 25.5786 32.8989 25.4832 33.0047C25.3879 33.1105 25.2584 33.1705 25.123 33.1718H18.877C18.7416 33.1705 18.6121 33.1105 18.5168 33.0047C18.4214 32.8989 18.3679 32.756 18.3679 32.6071V32.1176C18.368 32.0095 18.3486 31.9024 18.311 31.8024C18.2734 31.7025 18.2183 31.6117 18.1488 31.5352C18.0792 31.4587 17.9967 31.398 17.9058 31.3567C17.815 31.3153 17.7176 31.2941 17.6193 31.2941H6.20535V9.00235ZM40.5027 33.2706C40.5019 34.0154 40.2325 34.7295 39.7537 35.2562C39.2749 35.7829 38.6258 36.0791 37.9487 36.08H6.05134C5.37421 36.0791 4.72505 35.7829 4.24625 35.2562C3.76746 34.7295 3.49812 34.0154 3.49733 33.2706V32.9412H16.8933C16.9658 33.4631 17.2056 33.9392 17.5694 34.2836C17.9332 34.628 18.397 34.8178 18.877 34.8188H25.123C25.6029 34.8177 26.0666 34.6278 26.4303 34.2834C26.794 33.9391 27.0338 33.463 27.1063 32.9412H40.5027V33.2706Z" fill="#333333"/>
<circle cx="22" cy="11" r="1" fill="#FBC100"/>
</svg>
