<svg width="45" height="45" viewBox="0 0 45 45" fill="none" xmlns="http://www.w3.org/2000/svg">
<path d="M39.903 3.92804H4.76413C4.56154 3.92804 4.36724 4.00852 4.22398 4.15178C4.08073 4.29503 4.00024 4.48933 4.00024 4.69193V10.803C4.00024 11.0056 4.08073 11.1999 4.22398 11.3432C4.36724 11.4864 4.56154 11.5669 4.76413 11.5669H12.403V13.8586C12.403 14.0612 12.4835 14.2555 12.6268 14.3987C12.77 14.542 12.9643 14.6225 13.1669 14.6225H17.7502V15.3864C17.7502 15.589 17.8307 15.7833 17.974 15.9265C18.1172 16.0698 18.3115 16.1503 18.5141 16.1503C18.7167 16.1503 18.911 16.0698 19.0543 15.9265C19.1975 15.7833 19.278 15.589 19.278 15.3864V14.6225H23.8614C24.064 14.6225 24.2583 14.542 24.4015 14.3987C24.5448 14.2555 24.6252 14.0612 24.6252 13.8586V11.5669H33.028V36.0114H23.678C24.4517 35.3757 25.0749 34.5764 25.5028 33.6712C25.9308 32.7659 26.1528 31.777 26.153 30.7757V21.4975C26.153 21.2949 26.0725 21.1006 25.9293 20.9573C25.786 20.8141 25.5917 20.7336 25.3891 20.7336H11.6391C11.4365 20.7336 11.2422 20.8141 11.099 20.9573C10.9557 21.1006 10.8752 21.2949 10.8752 21.4975V23.0253H10.517C9.42233 23.0253 8.37809 23.4958 7.65392 24.3162C7.29555 24.7224 7.02761 25.2001 6.86786 25.7177C6.70811 26.2352 6.66021 26.7808 6.72733 27.3183C6.84384 28.2414 7.29286 29.0904 7.9903 29.7063C8.68774 30.3222 9.58577 30.6627 10.5162 30.6641H10.8752V30.7757C10.8764 31.7768 11.0989 32.7654 11.5268 33.6705C11.9547 34.5756 12.5773 35.375 13.3502 36.0114H4.76413C4.56154 36.0114 4.36724 36.0919 4.22398 36.2351C4.08073 36.3784 4.00024 36.5727 4.00024 36.7753V39.8308C4.00024 40.0334 4.08073 40.2277 4.22398 40.371C4.36724 40.5142 4.56154 40.5947 4.76413 40.5947H39.903C40.1056 40.5947 40.2999 40.5142 40.4432 40.371C40.5864 40.2277 40.6669 40.0334 40.6669 39.8308V4.69193C40.6669 4.48933 40.5864 4.29503 40.4432 4.15178C40.2999 4.00852 40.1056 3.92804 39.903 3.92804ZM5.52802 5.45582H39.1391V10.0392H5.52802V5.45582ZM23.0975 13.0947H13.9308V11.5669H23.0975V13.0947ZM10.517 29.1364C9.91944 29.1209 9.35155 28.8727 8.93437 28.4446C8.5172 28.0166 8.28372 27.4424 8.28372 26.8447C8.28372 26.247 8.5172 25.6729 8.93437 25.2448C9.35155 24.8167 9.91944 24.5685 10.517 24.553H10.8752V29.1364H10.517ZM12.9553 33.1162C12.5931 32.3894 12.4041 31.5885 12.403 30.7764V22.2614H24.6252V30.7757C24.6244 31.5884 24.4351 32.3898 24.0722 33.117C23.64 33.9887 22.9722 34.722 22.1446 35.2335C21.3169 35.7451 20.3625 36.0146 19.3895 36.0114H17.6387C16.6657 36.0144 15.7112 35.7448 14.8836 35.2331C14.056 34.7214 13.3882 33.9881 12.9561 33.1162H12.9553ZM39.1391 39.0669H5.52802V37.5391H33.7919C33.9945 37.5391 34.1888 37.4587 34.3321 37.3154C34.4753 37.1722 34.5558 36.9779 34.5558 36.7753V11.5669H39.1391V36.7753V39.0669Z" fill="#333333"/>
<path d="M9.34745 6.16022C9.14485 6.16022 8.95055 6.2407 8.8073 6.38396C8.66404 6.52721 8.58356 6.72151 8.58356 6.92411V8.45188C8.58356 8.65448 8.66404 8.84878 8.8073 8.99203C8.95055 9.13529 9.14485 9.21577 9.34745 9.21577C9.55004 9.21577 9.74434 9.13529 9.8876 8.99203C10.0309 8.84878 10.1113 8.65448 10.1113 8.45188V6.92411C10.1113 6.72151 10.0309 6.52721 9.8876 6.38396C9.74434 6.2407 9.55004 6.16022 9.34745 6.16022ZM13.1669 6.92411C13.1669 6.72151 13.0864 6.52721 12.9432 6.38396C12.7999 6.2407 12.6056 6.16022 12.403 6.16022C12.2004 6.16022 12.0061 6.2407 11.8628 6.38396C11.7196 6.52721 11.6391 6.72151 11.6391 6.92411V8.45188C11.6391 8.65448 11.7196 8.84878 11.8628 8.99203C12.0061 9.13529 12.2004 9.21577 12.403 9.21577C12.6056 9.21577 12.7999 9.13529 12.9432 8.99203C13.0864 8.84878 13.1669 8.65448 13.1669 8.45188V6.92411ZM15.4586 9.21577C15.6612 9.21577 15.8555 9.13529 15.9987 8.99203C16.142 8.84878 16.2224 8.65448 16.2224 8.45188V6.92411C16.2224 6.72151 16.142 6.52721 15.9987 6.38396C15.8555 6.2407 15.6612 6.16022 15.4586 6.16022C15.256 6.16022 15.0617 6.2407 14.9184 6.38396C14.7751 6.52721 14.6947 6.72151 14.6947 6.92411V8.45188C14.6947 8.65448 14.7751 8.84878 14.9184 8.99203C15.0617 9.13529 15.256 9.21577 15.4586 9.21577Z" fill="#FBC100"/>
</svg>
