<svg width="108" height="37" viewBox="0 0 108 37" fill="none" xmlns="http://www.w3.org/2000/svg">
<rect y="0.814453" width="108" height="36" rx="5" fill="white"/>
<path d="M22.3763 19.0849C22.3763 16.5649 24.4515 15.3949 24.5417 15.3049C23.3688 13.5949 21.5643 13.4149 20.9327 13.3249C19.3989 13.1449 17.9552 14.2249 17.1432 14.2249C16.3312 14.2249 15.1583 13.3249 13.8951 13.3249C12.2711 13.3249 10.7372 14.3149 9.83495 15.7549C8.12066 18.7249 9.38378 23.2249 11.0981 25.6549C11.9102 26.8249 12.9026 28.1749 14.1658 28.1749C15.4289 28.0849 15.8801 27.3649 17.4139 27.3649C18.9477 27.3649 19.3086 28.1749 20.662 28.1749C22.0154 28.1749 22.8274 27.0049 23.6394 25.7449C24.6319 24.3949 24.9928 23.0449 24.9928 22.9549C24.9928 23.0449 22.3763 22.0549 22.3763 19.0849Z" fill="black"/>
<path d="M19.8501 11.7945C20.4817 10.9845 21.0231 9.81452 20.8426 8.64453C19.8501 8.64453 18.6772 9.27453 17.9554 10.1745C17.3238 10.8945 16.7825 12.0645 16.9629 13.2345C18.0456 13.2345 19.2186 12.6045 19.8501 11.7945Z" fill="black"/>
<path d="M38.1646 25.2045H33.924L32.9315 28.2645H31.127L35.1871 17.1045H36.9916L41.0518 28.2645H39.2473L38.1646 25.2045ZM34.3751 23.8545H37.8037L36.0894 18.9045H35.9992L34.3751 23.8545Z" fill="black"/>
<path d="M49.8039 24.2147C49.8039 26.7347 48.4506 28.3547 46.3754 28.3547C45.2024 28.3547 44.3002 27.8147 43.8491 26.9147V30.9647H42.1348V20.1647H43.7588V21.5147C44.21 20.6147 45.2024 20.0747 46.3754 20.0747C48.3603 19.9847 49.8039 21.6947 49.8039 24.2147ZM47.9994 24.2147C47.9994 22.5947 47.1874 21.5147 45.834 21.5147C44.5709 21.5147 43.6686 22.5947 43.6686 24.2147C43.6686 25.8347 44.5709 26.9147 45.834 26.9147C47.1874 26.9147 47.9994 25.8347 47.9994 24.2147Z" fill="black"/>
<path d="M58.7375 24.2147C58.7375 26.7347 57.3842 28.3547 55.309 28.3547C54.136 28.3547 53.2338 27.8147 52.7827 26.9147V30.9647H51.0684V20.1647H52.6924V21.5147C53.1436 20.6147 54.136 20.0747 55.309 20.0747C57.3842 19.9847 58.7375 21.6947 58.7375 24.2147ZM57.0233 24.2147C57.0233 22.5947 56.2112 21.5147 54.8579 21.5147C53.5947 21.5147 52.6924 22.5947 52.6924 24.2147C52.6924 25.8347 53.5947 26.9147 54.8579 26.9147C56.2112 26.9147 57.0233 25.8347 57.0233 24.2147Z" fill="black"/>
<path d="M64.6921 25.1148C64.7823 26.1948 65.865 26.9148 67.3988 26.9148C68.8424 26.9148 69.8349 26.1948 69.8349 25.2048C69.8349 24.3048 69.2033 23.8548 67.7597 23.4948L66.3161 23.1348C64.2409 22.5948 63.3387 21.6948 63.3387 20.1648C63.3387 18.2748 65.053 16.9248 67.3988 16.9248C69.7447 16.9248 71.3687 18.2748 71.459 20.1648H69.7447C69.6545 19.0848 68.7522 18.3648 67.3988 18.3648C66.0454 18.3648 65.1432 19.0848 65.1432 20.0748C65.1432 20.8848 65.7748 21.3348 67.2184 21.6948L68.4815 21.9648C70.7372 22.5048 71.7296 23.4048 71.7296 25.0248C71.7296 27.0948 70.0154 28.4448 67.3988 28.4448C64.8725 28.4448 63.2485 27.1848 63.1582 25.1148H64.6921Z" fill="black"/>
<path d="M75.1583 18.1846V20.0746H76.6921V21.4246H75.1583V25.9246C75.1583 26.6446 75.429 26.9146 76.1508 26.9146C76.3312 26.9146 76.6019 26.9146 76.6921 26.9146V28.2646C76.5117 28.3546 76.1508 28.3546 75.7899 28.3546C74.1658 28.3546 73.5343 27.7246 73.5343 26.1946V21.5146H72.3613V20.1646H73.5343V18.2746H75.1583V18.1846Z" fill="black"/>
<path d="M77.6836 24.2142C77.6836 21.6942 79.2175 20.0742 81.5633 20.0742C83.9092 20.0742 85.4429 21.6942 85.4429 24.2142C85.4429 26.8242 83.9092 28.3542 81.5633 28.3542C79.1272 28.3542 77.6836 26.7342 77.6836 24.2142ZM83.7287 24.2142C83.7287 22.4142 82.9166 21.4242 81.5633 21.4242C80.2099 21.4242 79.3979 22.4142 79.3979 24.2142C79.3979 26.0142 80.2099 27.0042 81.5633 27.0042C82.9166 27.0042 83.7287 25.9242 83.7287 24.2142Z" fill="black"/>
<path d="M86.7969 20.0742H88.421V21.5142C88.6916 20.6142 89.4134 20.0742 90.4059 20.0742C90.6768 20.0742 90.8568 20.0742 90.9477 20.1642V21.6942C90.8568 21.6042 90.4959 21.6042 90.2259 21.6042C89.1428 21.6042 88.5112 22.3242 88.5112 23.4942V28.3542H86.7969V20.0742Z" fill="black"/>
<path d="M98.7066 25.8344C98.5266 27.2744 96.9921 28.3544 95.1876 28.3544C92.8422 28.3544 91.3086 26.7344 91.3086 24.2144C91.3086 21.6944 92.7522 19.9844 95.0976 19.9844C97.353 19.9844 98.7966 21.5144 98.7966 24.0344V24.5744H93.0222V24.6644C93.0222 26.0144 93.9249 27.0044 95.1876 27.0044C96.0903 27.0044 96.8121 26.5544 97.083 25.8344H98.7066ZM93.0222 23.4044H97.083C97.083 22.1444 96.2703 21.3344 95.0976 21.3344C93.9249 21.3344 93.1131 22.2344 93.0222 23.4044Z" fill="black"/>
<path d="M33.0815 13.4346H32.0186L32.0254 12.7544H33.0815C33.3892 12.7544 33.6466 12.6872 33.854 12.5527C34.0636 12.4183 34.2209 12.2257 34.3257 11.9751C34.4328 11.7244 34.4863 11.4259 34.4863 11.0796V10.8096C34.4863 10.5407 34.4556 10.3026 34.394 10.0952C34.3348 9.88786 34.2459 9.71354 34.1274 9.57227C34.0112 9.43099 33.8677 9.32389 33.6968 9.25098C33.5282 9.17806 33.3333 9.1416 33.1123 9.1416H31.998V8.45801H33.1123C33.4427 8.45801 33.7446 8.51383 34.0181 8.62549C34.2915 8.73486 34.5273 8.89323 34.7256 9.10059C34.9261 9.30794 35.0799 9.55632 35.187 9.8457C35.2941 10.1351 35.3477 10.4587 35.3477 10.8164V11.0796C35.3477 11.4373 35.2941 11.7609 35.187 12.0503C35.0799 12.3397 34.9261 12.5881 34.7256 12.7954C34.5251 13.0005 34.2858 13.1589 34.0078 13.2705C33.7321 13.3799 33.4233 13.4346 33.0815 13.4346ZM32.4937 8.45801V13.4346H31.6357V8.45801H32.4937ZM38.0718 9.12109L36.585 13.4346H35.686L37.5591 8.45801H38.1333L38.0718 9.12109ZM39.3159 13.4346L37.8257 9.12109L37.7607 8.45801H38.3384L40.2183 13.4346H39.3159ZM39.2441 11.5889V12.269H36.5371V11.5889H39.2441ZM42.8672 8.45801H43.6328L45.0718 12.2964L46.5073 8.45801H47.2729L45.3726 13.4346H44.7642L42.8672 8.45801ZM42.5186 8.45801H43.2466L43.373 11.7803V13.4346H42.5186V8.45801ZM46.8936 8.45801H47.625V13.4346H46.7671V11.7803L46.8936 8.45801ZM50.6431 9.12109L49.1562 13.4346H48.2573L50.1304 8.45801H50.7046L50.6431 9.12109ZM51.8872 13.4346L50.397 9.12109L50.332 8.45801H50.9097L52.7896 13.4346H51.8872ZM51.8154 11.5889V12.269H49.1084V11.5889H51.8154ZM54.7651 12.5254L56.0742 8.45801H57.021L55.2368 13.4346H54.5977L54.7651 12.5254ZM53.5552 8.45801L54.854 12.5254L55.0317 13.4346H54.3892L52.6118 8.45801H53.5552ZM59.6255 11.9409V8.45801H60.48V11.9409C60.48 12.2713 60.4093 12.5527 60.2681 12.7852C60.1268 13.0176 59.9342 13.1953 59.6904 13.3184C59.4466 13.4414 59.1698 13.5029 58.8599 13.5029C58.5431 13.5029 58.2617 13.4494 58.0156 13.3423C57.7718 13.2352 57.5804 13.0711 57.4414 12.8501C57.3024 12.6291 57.2329 12.3488 57.2329 12.0093H58.0942C58.0942 12.2052 58.125 12.3636 58.1865 12.4844C58.2503 12.6029 58.3392 12.6895 58.4531 12.7441C58.5693 12.7965 58.7049 12.8228 58.8599 12.8228C59.008 12.8228 59.139 12.7897 59.2529 12.7236C59.3691 12.6553 59.4603 12.5562 59.5264 12.4263C59.5924 12.2941 59.6255 12.1323 59.6255 11.9409ZM64.2603 8.45801H65.1147V11.7837C65.1147 12.1619 65.0327 12.4787 64.8687 12.7339C64.7046 12.9891 64.4813 13.1816 64.1987 13.3115C63.9185 13.4391 63.6051 13.5029 63.2588 13.5029C62.901 13.5029 62.582 13.4391 62.3018 13.3115C62.0215 13.1816 61.8005 12.9891 61.6387 12.7339C61.4792 12.4787 61.3994 12.1619 61.3994 11.7837V8.45801H62.2539V11.7837C62.2539 12.0229 62.2949 12.2201 62.377 12.375C62.459 12.5277 62.5752 12.6405 62.7256 12.7134C62.876 12.7863 63.0537 12.8228 63.2588 12.8228C63.4639 12.8228 63.6405 12.7863 63.7886 12.7134C63.939 12.6405 64.0552 12.5277 64.1372 12.375C64.2192 12.2201 64.2603 12.0229 64.2603 11.7837V8.45801ZM67.4937 13.4346H66.4307L66.4375 12.7544H67.4937C67.8013 12.7544 68.0588 12.6872 68.2661 12.5527C68.4757 12.4183 68.633 12.2257 68.7378 11.9751C68.8449 11.7244 68.8984 11.4259 68.8984 11.0796V10.8096C68.8984 10.5407 68.8677 10.3026 68.8062 10.0952C68.7469 9.88786 68.658 9.71354 68.5396 9.57227C68.4233 9.43099 68.2798 9.32389 68.1089 9.25098C67.9403 9.17806 67.7454 9.1416 67.5244 9.1416H66.4102V8.45801H67.5244C67.8548 8.45801 68.1567 8.51383 68.4302 8.62549C68.7036 8.73486 68.9395 8.89323 69.1377 9.10059C69.3382 9.30794 69.492 9.55632 69.5991 9.8457C69.7062 10.1351 69.7598 10.4587 69.7598 10.8164V11.0796C69.7598 11.4373 69.7062 11.7609 69.5991 12.0503C69.492 12.3397 69.3382 12.5881 69.1377 12.7954C68.9372 13.0005 68.6979 13.1589 68.4199 13.2705C68.1442 13.3799 67.8354 13.4346 67.4937 13.4346ZM66.9058 8.45801V13.4346H66.0479V8.45801H66.9058Z" fill="black"/>
</svg>
