<svg width="39" height="40" viewBox="0 0 39 40" fill="none" xmlns="http://www.w3.org/2000/svg">
<path d="M29.1085 24.5C26.3458 24.3125 24.0548 26.7031 24.2345 29.586C24.3842 31.9688 26.226 33.8906 28.5096 34.0469C31.2723 34.2266 33.5558 31.8438 33.3836 28.961C33.2413 26.5781 31.3921 24.6485 29.1085 24.5ZM28.9738 31.8985C27.4539 32 26.1886 30.6875 26.2859 29.0938C26.3683 27.7813 27.3865 26.7188 28.6443 26.6328C30.1642 26.5313 31.4295 27.8438 31.3322 29.4375C31.2498 30.75 30.2316 31.8125 28.9738 31.8985Z" fill="#FBC100"/>
<path d="M13.4535 24.5C10.6908 24.3125 8.40726 26.7031 8.57946 29.586C8.72171 31.9688 10.571 33.8906 12.8545 34.0469C15.6172 34.2344 17.9007 31.8438 17.7285 28.961C17.5788 26.5781 15.737 24.6485 13.4535 24.5ZM13.3187 31.8985C11.7989 32 10.541 30.6875 10.6309 29.1016C10.7132 27.7891 11.7315 26.7266 12.9818 26.6406C14.5017 26.5391 15.767 27.8516 15.6696 29.4453C15.5948 30.75 14.569 31.8125 13.3187 31.8985Z" fill="#FBC100"/>
<path d="M17.2048 30.3861H25.1035V28.2377H17.2048V30.3861Z" fill="#FBC100"/>
<path d="M37.3981 21.5859V28.0391C37.3981 29.3359 36.3949 30.3828 35.152 30.3828H32.8011V28.2344H34.6354C35.0247 28.2344 35.3317 27.9063 35.3317 27.5078V21.8438C34.7926 21.1094 34.2536 20.3672 33.7145 19.6328H24.8424C24.2734 19.6328 23.8167 19.1484 23.8167 18.5625V8.36719H6.52181C5.9528 8.36719 5.49609 7.88281 5.49609 7.29688C5.49609 6.70313 5.96029 6.22656 6.52181 6.22656H24.8424C25.4115 6.22656 25.8682 6.71094 25.8682 7.29688V16.8047C25.8682 17.1875 26.1602 17.4922 26.527 17.4922H34.9873L35.3018 18.1406C35.3242 18.1875 35.3542 18.2344 35.3841 18.2734C35.9906 19.1719 36.597 20.0625 37.2109 20.9609C37.3307 21.1484 37.3981 21.3594 37.3981 21.5859Z" fill="#FBC100"/>
<path d="M5.61556 28.2344H8.86491C9.43392 28.2344 9.89062 28.7188 9.89062 29.3047C9.89062 29.8984 9.42643 30.375 8.86491 30.375H5.61556C5.04655 30.375 4.58984 29.8906 4.58984 29.3047C4.58984 28.7188 5.04655 28.2344 5.61556 28.2344Z" fill="#FBC100"/>
<path d="M4.25237 21.2422H9.7553C10.3243 21.2422 10.781 21.7266 10.781 22.3125C10.781 22.9062 10.3168 23.3828 9.7553 23.3828H4.25237C3.68336 23.3828 3.22665 22.8984 3.22665 22.3125C3.21916 21.7188 3.68336 21.2422 4.25237 21.2422Z" fill="#FBC100"/>
<path d="M2.32854 16.5079H12.698C13.267 16.5079 13.7237 16.9923 13.7237 17.5782C13.7237 18.172 13.2595 18.6486 12.698 18.6486H2.32854C1.75953 18.6486 1.30282 18.1642 1.30282 17.5782C1.29534 16.9845 1.75953 16.5079 2.32854 16.5079Z" fill="#FBC100"/>
<path d="M4.29729 11.8359H14.2175C14.7865 11.8359 15.2433 12.3203 15.2433 12.9062C15.2433 13.5 14.7791 13.9766 14.2175 13.9766H4.29729C3.72828 13.9766 3.27157 13.4922 3.27157 12.9062C3.26409 12.3125 3.72828 11.8359 4.29729 11.8359Z" fill="#FBC100"/>
<path d="M34.9863 17.4844H32.6803L30.1647 12.2812H25.8672V10.1328H30.6064C31.1081 10.1328 31.5648 10.4297 31.7969 10.8984L32.4707 12.2812" fill="#FBC100"/>
</svg>
