<svg width="40" height="40" viewBox="0 0 40 40" fill="none" xmlns="http://www.w3.org/2000/svg">
<path d="M35.311 11.3985V11.3672C35.296 11.0079 35.2886 10.6251 35.2811 10.1954C35.2511 8.12506 33.6714 6.40631 31.6873 6.28912C27.5395 6.04694 24.3351 4.64069 21.5949 1.85162L21.5724 1.82819C20.6815 0.976624 19.3338 0.976624 18.4354 1.82819L18.4129 1.85162C15.6727 4.6485 12.4682 6.05475 8.32046 6.29694C6.33641 6.41412 4.75666 8.12506 4.72671 10.2032C4.71922 10.6251 4.71173 11.0079 4.69676 11.3751V11.4454C4.6144 15.8516 4.51707 21.3438 6.27651 26.3204C7.24233 29.0626 8.70978 31.4376 10.6339 33.3985C12.8201 35.6251 15.6876 37.3985 19.1541 38.6563C19.2664 38.6954 19.3862 38.7344 19.506 38.7579C19.6707 38.7891 19.8429 38.8126 20.0151 38.8126C20.1873 38.8126 20.352 38.7969 20.5242 38.7579C20.644 38.7344 20.7638 38.7032 20.8761 38.6563C24.3351 37.3907 27.2026 35.6251 29.3888 33.3907C31.313 31.4297 32.7729 29.0547 33.7462 26.3126C35.4907 21.3126 35.3934 15.8204 35.311 11.3985ZM31.7846 25.5704C29.9204 30.8438 26.117 34.461 20.1574 36.6329C20.1349 36.6407 20.1125 36.6485 20.09 36.6485C20.0301 36.6641 19.9627 36.6641 19.9028 36.6485C19.8804 36.6407 19.8579 36.6407 19.8354 36.6329C13.8683 34.461 10.0649 30.8438 8.20067 25.5782C6.57599 20.9688 6.66584 15.9141 6.74819 11.4532V11.4297C6.76317 11.0469 6.77814 10.6485 6.77814 10.2032C6.79311 9.28131 7.49689 8.51569 8.38784 8.461C10.7388 8.32037 12.8126 7.85162 14.7069 7.00787C16.6011 6.17194 18.2931 4.98444 19.8579 3.3985C19.9402 3.32819 20.0376 3.32819 20.1199 3.3985C21.6922 4.99225 23.3768 6.17194 25.271 7.00787C27.1727 7.84381 29.2391 8.32037 31.59 8.461C32.4809 8.51569 33.1847 9.2735 33.1997 10.2032C33.2072 10.6485 33.2147 11.0469 33.2371 11.4297C33.327 15.8907 33.4168 20.9532 31.7846 25.5704Z" fill="#FBC100"/>
<path d="M19.9997 10.1016C14.7588 10.1016 10.5137 14.5313 10.5137 20.0001C10.5137 25.4688 14.7588 29.8985 19.9997 29.8985C25.2405 29.8985 29.4857 25.4688 29.4857 20.0001C29.4857 14.5313 25.2405 10.1016 19.9997 10.1016ZM19.9997 27.7422C15.9043 27.7422 12.5876 24.2735 12.5876 20.0001C12.5876 15.7266 15.9043 12.2579 19.9997 12.2579C24.095 12.2579 27.4118 15.7188 27.4118 20.0001C27.4118 24.2735 24.095 27.7422 19.9997 27.7422Z" fill="#FBC100"/>
<path d="M18.3833 23.5782C17.979 23.1564 17.979 22.4767 18.3833 22.0626L23.3921 16.8361C23.7964 16.4142 24.4478 16.4142 24.8446 16.8361C25.2489 17.2579 25.2489 17.9376 24.8446 18.3517L19.8358 23.5782C19.439 24.0001 18.7876 24.0001 18.3833 23.5782Z" fill="#FBC100"/>
<path d="M16.2271 20.0314C16.5715 19.672 17.1255 19.672 17.4699 20.0314L19.5962 22.2501C19.9406 22.6095 19.9406 23.1876 19.5962 23.547C19.2518 23.9064 18.6978 23.9064 18.3534 23.547L16.2271 21.3282C15.8826 20.9689 15.8826 20.3907 16.2271 20.0314Z" fill="#FBC100"/>
</svg>
