<svg width="39" height="40" viewBox="0 0 39 40" fill="none" xmlns="http://www.w3.org/2000/svg">
<path d="M24.7747 3.16406C19.0397 3.16406 12.9453 5.13281 12.9453 8.77344V13.2656C12.9453 13.8828 13.4245 14.3906 14.0234 14.3906C14.6149 14.3906 15.1016 13.8906 15.1016 13.2656V12.0938C17.3851 13.5938 21.151 14.3828 24.7822 14.3828C28.4134 14.3828 32.1794 13.5938 34.4629 12.0938V13.2656C34.4629 14.3594 31.82 16.1172 26.8411 16.5469C26.2497 16.5938 25.8079 17.1406 25.8603 17.7578C25.9053 18.3438 26.377 18.7891 26.931 18.7891C26.9609 18.7891 26.9909 18.7891 27.0208 18.7812C29.821 18.5391 32.6136 17.7812 34.4554 16.5547V17.7578C34.4554 18.7188 32.5088 20.0938 28.8926 20.7578C28.3086 20.8672 27.9193 21.4453 28.0241 22.0547C28.1139 22.6016 28.5706 22.9844 29.0798 22.9844C29.1396 22.9844 29.207 22.9766 29.2669 22.9688C31.4531 22.5703 33.2051 21.9062 34.4554 21.0781V22.25C34.4554 23.2109 32.5088 24.5859 28.8926 25.25C28.3086 25.3594 27.9193 25.9375 28.0241 26.5469C28.1139 27.0938 28.5706 27.4766 29.0798 27.4766C29.1396 27.4766 29.207 27.4688 29.2669 27.4609C31.4531 27.0625 33.2051 26.3984 34.4554 25.5703V26.7422C34.4554 27.7031 32.5088 29.0781 28.8926 29.7422C28.3086 29.8516 27.9193 30.4297 28.0241 31.0391C28.1139 31.5859 28.5706 31.9688 29.0798 31.9688C29.1396 31.9688 29.207 31.9609 29.2669 31.9531C31.4531 31.5547 33.2051 30.8906 34.4554 30.0625V31.2344C34.4554 32.3281 31.8125 34.0859 26.8337 34.5156C26.2422 34.5625 25.8005 35.1094 25.8529 35.7266C25.8978 36.3125 26.3695 36.7578 26.9235 36.7578C26.9534 36.7578 26.9834 36.7578 27.0133 36.75C31.79 36.3359 36.6042 34.4688 36.6042 31.2344V8.78125C36.6042 5.13281 30.5098 3.16406 24.7747 3.16406ZM24.7747 12.2109C18.8001 12.2109 14.9893 10.1641 14.9893 8.76562C14.9893 7.36719 18.8001 5.3125 24.7747 5.3125C30.7493 5.3125 34.5602 7.35938 34.5602 8.75781C34.5602 10.1562 30.7493 12.2109 24.7747 12.2109Z" fill="#FBC100"/>
<path d="M14.0228 16.6328C8.28776 16.6328 2.19336 18.6015 2.19336 22.2421V31.2187C2.19336 34.8671 8.28776 36.8281 14.0228 36.8281C19.7578 36.8281 25.8522 34.8593 25.8522 31.2187V22.2421C25.8522 18.6015 19.7578 16.6328 14.0228 16.6328ZM24.0029 31.1171C24.0029 32.5312 20.1097 34.5937 14.0153 34.5937C7.9209 34.5937 4.03516 32.5312 4.03516 31.1171V29.914C6.38607 31.4609 10.2793 32.2812 14.0228 32.2812C17.7663 32.2812 21.652 31.4687 24.0104 29.914V31.1171H24.0029ZM24.0329 26.6171C24.0329 28.039 20.1322 30.1015 14.0228 30.1015C7.91341 30.1015 4.00521 28.039 4.00521 26.6171V25.4062C6.36361 26.9609 10.2643 27.7734 14.0153 27.7734C17.7663 27.7734 21.667 26.9531 24.0254 25.4062V26.6171H24.0329ZM14.0228 25.6093C8.02572 25.6093 4.20736 23.5859 4.20736 22.1953C4.20736 20.8046 8.0332 18.7812 14.0228 18.7812C20.0124 18.7812 23.8382 20.8046 23.8382 22.1953C23.8382 23.5859 20.0124 25.6093 14.0228 25.6093Z" fill="#FBC100"/>
</svg>
