<svg width="39" height="40" viewBox="0 0 39 40" fill="none" xmlns="http://www.w3.org/2000/svg">
<path d="M33.7815 23.8035C36.0748 21.9122 37.3694 19.3649 37.3694 16.6631C37.3694 11.1438 32.043 6.66663 25.5331 6.66663C21.3164 6.66663 17.6546 8.51926 15.5463 11.3368C15.0654 11.2982 14.5476 11.2596 14.0667 11.2596C7.55678 11.2596 2.23047 15.7368 2.23047 21.2561C2.23047 23.9579 3.52506 26.5438 5.81833 28.3964C5.63339 29.0526 5.33749 29.6701 5.00459 30.2105C4.48676 31.021 4.52374 32.0631 5.11556 32.835C5.44845 33.2982 5.96629 33.6456 6.52111 33.7228C6.63208 33.7228 6.74304 33.7614 6.85401 33.7614C7.07594 33.7614 7.29787 33.7228 7.5198 33.6456C8.96234 33.1824 10.4789 32.2947 12.0324 31.0596C12.7351 31.1754 13.4009 31.214 14.0667 31.214C18.2834 31.214 21.9822 29.3614 24.0536 26.5438C24.5344 26.5824 25.0153 26.621 25.5331 26.621C26.1989 26.621 26.9017 26.5824 27.5675 26.4666C29.121 27.7403 30.6375 28.5894 32.08 29.0912C32.302 29.1684 32.5239 29.207 32.7458 29.207C32.8568 29.207 32.9677 29.207 33.0787 29.1684C33.6335 29.0912 34.1514 28.7438 34.4843 28.2807C35.0391 27.5087 35.0761 26.4666 34.5952 25.6561C34.2623 25.0772 33.9664 24.4596 33.7815 23.8035ZM14.0667 29.0912C13.3639 29.0912 12.6242 29.014 11.9214 28.8982C11.6255 28.8596 11.3296 28.9368 11.1077 29.1298C9.62813 30.4035 8.18559 31.2526 6.92798 31.6386L6.74304 31.5614C6.70605 31.4842 6.70605 31.407 6.74304 31.3684C7.33485 30.4035 7.77871 29.3614 8.00064 28.2035C8.07462 27.7789 7.92667 27.3543 7.59377 27.0842C5.44845 25.5789 4.26483 23.4561 4.26483 21.2175C4.26483 16.8947 8.66643 13.3438 14.0667 13.3438C19.467 13.3438 23.8686 16.8561 23.8686 21.2175C23.8686 25.5789 19.467 29.0912 14.0667 29.0912ZM32.043 22.4912C31.7101 22.7228 31.5252 23.1859 31.6362 23.6105C31.8951 24.7684 32.302 25.8105 32.8938 26.7754C32.9308 26.8526 32.9308 26.9298 32.8938 26.9684L32.7088 27.0456C31.4142 26.621 30.0087 25.7719 28.5292 24.5368C28.3442 24.3824 28.1223 24.3052 27.9004 24.3052C27.8264 24.3052 27.7894 24.3052 27.7154 24.3052C26.9756 24.421 26.2729 24.4982 25.5701 24.4982C25.4591 24.4982 25.3851 24.4982 25.2742 24.4982C25.6811 23.4561 25.94 22.3754 25.94 21.2175C25.94 16.8175 22.574 13.1122 17.8765 11.7614C19.6889 9.94733 22.4261 8.75084 25.5701 8.75084C30.9704 8.75084 35.372 12.2631 35.372 16.6245C35.335 18.8631 34.1514 21.0245 32.043 22.4912Z" fill="#FBC100"/>
<path d="M14.1036 15.7729C11.8473 15.7729 10.8116 17.4711 10.5897 18.9378C10.5527 19.1308 10.6267 19.3238 10.7377 19.4782C10.8486 19.6325 11.0336 19.7097 11.2185 19.7097H12.0322C12.3282 19.7097 12.6241 19.4782 12.661 19.1308C12.809 18.3203 13.2898 17.9343 14.1036 17.9343C14.8803 17.9343 15.2132 18.3589 15.3612 18.629C15.5461 19.015 15.5091 19.4396 15.2872 19.7483C15.0653 20.0957 14.8434 20.2501 14.5844 20.4431C13.9186 20.9448 13.3268 21.4852 13.2159 22.9518C13.2159 23.1448 13.2529 23.3378 13.4008 23.4536C13.5118 23.608 13.6967 23.6852 13.8817 23.6852H14.6214C14.9543 23.6852 15.2502 23.415 15.2502 23.0676C15.2872 22.5273 15.3982 22.4501 15.7311 22.2185C16.064 21.9869 16.5078 21.6782 16.9147 21.022C17.6175 20.0571 17.6915 18.7448 17.1736 17.6641C16.6188 16.4676 15.4722 15.7729 14.1036 15.7729Z" fill="#FBC100"/>
<path d="M14.2108 26.9298C14.885 26.9298 15.4315 26.3596 15.4315 25.6561C15.4315 24.9527 14.885 24.3824 14.2108 24.3824C13.5367 24.3824 12.9902 24.9527 12.9902 25.6561C12.9902 26.3596 13.5367 26.9298 14.2108 26.9298Z" fill="#FBC100"/>
</svg>
