<svg width="110" height="37" viewBox="0 0 110 37" fill="none" xmlns="http://www.w3.org/2000/svg">
<rect y="0.814453" width="110" height="36.1538" rx="5" fill="white"/>
<path d="M55.1927 20.1686C53.367 20.1686 51.8755 21.5929 51.8755 23.5503C51.8755 25.4998 53.367 26.9321 55.1927 26.9321C57.0183 26.9321 58.5099 25.4998 58.5099 23.5503C58.5099 21.5929 57.0183 20.1686 55.1927 20.1686ZM55.1927 25.6032C54.1906 25.6032 53.3283 24.7597 53.3283 23.5503C53.3283 22.3329 54.1906 21.4974 55.1927 21.4974C56.1949 21.4974 57.0572 22.3329 57.0572 23.5503C57.0572 24.7597 56.187 25.6032 55.1927 25.6032ZM47.9523 20.1686C46.1267 20.1686 44.6352 21.5929 44.6352 23.5503C44.6352 25.4998 46.1267 26.9321 47.9523 26.9321C49.778 26.9321 51.2696 25.4998 51.2696 23.5503C51.2696 21.5929 49.778 20.1686 47.9523 20.1686ZM47.9523 25.6032C46.9502 25.6032 46.0879 24.7597 46.0879 23.5503C46.0879 22.3329 46.9502 21.4974 47.9523 21.4974C48.9545 21.4974 49.8168 22.3329 49.8168 23.5503C49.8168 24.7597 48.9545 25.6032 47.9523 25.6032ZM39.3446 21.2109V22.6432H42.7007C42.5997 23.4469 42.3356 24.0436 41.9394 24.4495C41.45 24.9507 40.6887 25.4998 39.3525 25.4998C37.286 25.4998 35.67 23.797 35.67 21.6804C35.67 19.5638 37.286 17.861 39.3525 17.861C40.4634 17.861 41.279 18.3066 41.8773 18.8875L42.8639 17.8769C42.0249 17.0573 40.914 16.4287 39.3446 16.4287C36.5169 16.4287 34.1396 18.7841 34.1396 21.6883C34.1396 24.5847 36.5169 26.948 39.3446 26.948C40.875 26.948 42.0249 26.4387 42.926 25.4759C43.8505 24.529 44.1379 23.1922 44.1379 22.1181C44.1379 21.7838 44.1146 21.4735 44.0603 21.2189H39.3446V21.2109ZM74.5444 22.3249C74.2725 21.569 73.4335 20.1686 71.7166 20.1686C70.0153 20.1686 68.6014 21.5372 68.6014 23.5503C68.6014 25.4441 69.9997 26.9321 71.8797 26.9321C73.3946 26.9321 74.2725 25.9852 74.6299 25.4362L73.5034 24.6643C73.1305 25.2292 72.6178 25.6032 71.8797 25.6032C71.1417 25.6032 70.6135 25.2531 70.2794 24.5767L74.6998 22.7068L74.5444 22.3249ZM70.0386 23.4548C69.9997 22.1499 71.0253 21.4815 71.7633 21.4815C72.3382 21.4815 72.8276 21.7759 72.9906 22.1976L70.0386 23.4548ZM66.4495 26.7332H67.9023V16.7868H66.4495V26.7332ZM64.0723 20.9245H64.0179C63.6916 20.5266 63.0702 20.1686 62.2777 20.1686C60.623 20.1686 59.1082 21.6565 59.1082 23.5662C59.1082 25.46 60.623 26.94 62.2777 26.94C63.0623 26.94 63.6916 26.5819 64.0179 26.1682H64.0645V26.6536C64.0645 27.9506 63.3886 28.6428 62.301 28.6428C61.4154 28.6428 60.8638 27.9903 60.6386 27.4413L59.3723 27.9824C59.7374 28.8815 60.7006 29.9796 62.301 29.9796C64.0024 29.9796 65.4396 28.9532 65.4396 26.4546V20.3754H64.0645V20.9245H64.0723ZM62.402 25.6032C61.3999 25.6032 60.5608 24.7438 60.5608 23.5662C60.5608 22.3726 61.3999 21.5053 62.402 21.5053C63.3887 21.5053 64.1655 22.3806 64.1655 23.5662C64.1733 24.7438 63.3964 25.6032 62.402 25.6032ZM81.3497 16.7868H77.8774V26.7332H79.3297V22.9615H81.3574C82.9659 22.9615 84.5428 21.7679 84.5428 19.8742C84.5428 17.9804 82.9497 16.7868 81.3497 16.7868ZM81.3805 21.577H79.322V18.1634H81.3805C82.4682 18.1634 83.082 19.0864 83.082 19.8662C83.082 20.646 82.4682 21.577 81.3805 21.577ZM90.3459 20.1526C89.2974 20.1526 88.2097 20.6301 87.759 21.6724L89.0482 22.2215C89.3205 21.6724 89.8328 21.4894 90.369 21.4894C91.1151 21.4894 91.8843 21.9509 91.892 22.7705V22.874C91.6274 22.7227 91.0682 22.492 90.3766 22.492C88.9866 22.492 87.5805 23.2718 87.5805 24.7279C87.5805 26.0567 88.7143 26.9162 89.9882 26.9162C90.9597 26.9162 91.5036 26.4706 91.8374 25.9454H91.8843V26.7172H93.282V22.9058C93.2905 21.1393 92.0005 20.1526 90.3459 20.1526ZM90.1674 25.6032C89.6936 25.6032 89.0328 25.3566 89.0328 24.7597C89.0328 23.9959 89.8566 23.7015 90.5713 23.7015C91.2082 23.7015 91.5113 23.8447 91.892 24.0356C91.7828 24.9507 91.0059 25.6032 90.1674 25.6032ZM98.3867 20.3675L96.7243 24.6803H96.6774L94.952 20.3675H93.3913L95.9782 26.3989L94.502 29.7488H96.0174L100.002 20.3675H98.3867ZM85.3351 26.7332H86.7882V16.7868H85.3351V26.7332Z" fill="black"/>
<path d="M10.3681 8.86233C10.1428 9.10903 10.0107 9.49095 10.0107 9.97633V27.5773C10.0107 28.0707 10.1428 28.4526 10.3681 28.6913L10.4225 28.747L20.0479 18.8962V18.7769V18.6574L10.4225 8.80664L10.3681 8.86233Z" fill="url(#paint0_linear_11998_265578)"/>
<path d="M23.2553 22.1823L20.0469 18.8961V18.7768V18.6573L23.2553 15.3711L23.3253 15.4109L27.1241 17.6229C28.2117 18.2516 28.2117 19.286 27.1241 19.9225L23.3253 22.1346L23.2553 22.1823Z" fill="url(#paint1_linear_11998_265578)"/>
<path d="M23.3233 22.1351L20.045 18.7773L10.3652 28.6918C10.7226 29.0816 11.313 29.1294 11.9811 28.7396L23.3233 22.1351Z" fill="url(#paint2_linear_11998_265578)"/>
<path d="M23.3253 15.4199L11.9753 8.81553C11.3072 8.42565 10.7168 8.47339 10.3594 8.8633L20.0469 18.7778L23.3253 15.4199Z" fill="url(#paint3_linear_11998_265578)"/>
<path opacity="0.2" d="M23.2562 22.0645L11.9762 28.6291C11.347 28.9951 10.7799 28.9711 10.4225 28.6369L10.3682 28.6926L10.4225 28.7484C10.7876 29.0825 11.347 29.1065 11.9762 28.7404L23.3262 22.1361L23.2562 22.0645Z" fill="#383838"/>
<path opacity="0.12" d="M10.3681 28.5808C10.1428 28.3342 10.0107 27.9522 10.0107 27.4668V27.5862C10.0107 28.0795 10.1428 28.4614 10.3681 28.7002L10.4225 28.6445L10.3681 28.5808Z" fill="#383838"/>
<path opacity="0.12" d="M27.1236 19.8117L23.2471 22.0637L23.3169 22.1353L27.1158 19.9231C27.6596 19.6049 27.9315 19.1911 27.9315 18.7773C27.8927 19.1513 27.6208 19.5253 27.1236 19.8117Z" fill="#383838"/>
<path opacity="0.25" d="M11.9752 8.92593L27.124 17.7423C27.6135 18.0287 27.8931 18.3947 27.9398 18.7767C27.9398 18.363 27.6679 17.9412 27.124 17.6309L11.9752 8.81454C10.8876 8.18595 10.002 8.71108 10.002 9.98424V10.1036C10.002 8.82254 10.8953 8.29735 11.9752 8.92593Z" fill="black"/>
<path d="M35.3948 12.3525H34.3435L34.3502 11.6798H35.3948C35.699 11.6798 35.9536 11.6134 36.1587 11.4804C36.3661 11.3475 36.5215 11.157 36.6252 10.9091C36.7312 10.6612 36.7841 10.366 36.7841 10.0235V9.75639C36.7841 9.49046 36.7537 9.25493 36.6928 9.04985C36.6342 8.84477 36.5463 8.67239 36.4292 8.53269C36.3142 8.39296 36.1722 8.28703 36.0032 8.21492C35.8365 8.1428 35.6438 8.10675 35.4252 8.10675H34.3232V7.43066H35.4252C35.7519 7.43066 36.0505 7.48588 36.321 7.5963C36.5914 7.70448 36.8247 7.8611 37.0207 8.06618C37.2191 8.27126 37.3712 8.51693 37.4771 8.80308C37.583 9.08931 37.636 9.40931 37.636 9.76316V10.0235C37.636 10.3772 37.583 10.6972 37.4771 10.9835C37.3712 11.2697 37.2191 11.5153 37.0207 11.7204C36.8224 11.9232 36.5858 12.0798 36.3108 12.1903C36.0382 12.2985 35.7328 12.3525 35.3948 12.3525ZM34.8133 7.43066V12.3525H33.9648V7.43066H34.8133ZM40.3302 8.08646L38.8597 12.3525H37.9706L39.8231 7.43066H40.391L40.3302 8.08646ZM41.5606 12.3525L40.0868 8.08646L40.0225 7.43066H40.5938L42.4531 12.3525H41.5606ZM41.4896 10.5272V11.1998H38.8123V10.5272H41.4896ZM45.0728 7.43066H45.8301L47.2532 11.2268L48.673 7.43066H49.4302L47.5507 12.3525H46.949L45.0728 7.43066ZM44.7281 7.43066H45.4481L45.5732 10.7164V12.3525H44.7281V7.43066ZM49.055 7.43066H49.7784V12.3525H48.9299V10.7164L49.055 7.43066ZM52.7633 8.08646L51.2928 12.3525H50.4038L52.2562 7.43066H52.8242L52.7633 8.08646ZM53.9938 12.3525L52.5199 8.08646L52.4557 7.43066H53.027L54.8862 12.3525H53.9938ZM53.9228 10.5272V11.1998H51.2455V10.5272H53.9228ZM56.8401 11.4534L58.1348 7.43066H59.0712L57.3065 12.3525H56.6745L56.8401 11.4534ZM55.6434 7.43066L56.9279 11.4534L57.1038 12.3525H56.4682L54.7104 7.43066H55.6434ZM61.647 10.8753V7.43066H62.4921V10.8753C62.4921 11.2021 62.4222 11.4804 62.2825 11.7102C62.1428 11.9402 61.9524 12.1159 61.7112 12.2376C61.4701 12.3593 61.1963 12.4202 60.8898 12.4202C60.5765 12.4202 60.2982 12.3672 60.0548 12.2612C59.8137 12.1554 59.6244 11.9931 59.4869 11.7745C59.3495 11.5559 59.2807 11.2787 59.2807 10.9429H60.1326C60.1326 11.1367 60.163 11.2933 60.2238 11.4128C60.2869 11.53 60.3748 11.6156 60.4875 11.6697C60.6025 11.7215 60.7365 11.7475 60.8898 11.7475C61.0363 11.7475 61.1658 11.7148 61.2785 11.6494C61.3935 11.5818 61.4836 11.4838 61.549 11.3553C61.6143 11.2246 61.647 11.0646 61.647 10.8753ZM66.2308 7.43066H67.0759V10.7198C67.0759 11.0939 66.9948 11.4072 66.8325 11.6595C66.6703 11.9119 66.4495 12.1024 66.17 12.2308C65.8928 12.3571 65.5829 12.4202 65.2404 12.4202C64.8865 12.4202 64.5711 12.3571 64.2938 12.2308C64.0167 12.1024 63.7981 11.9119 63.6381 11.6595C63.4803 11.4072 63.4015 11.0939 63.4015 10.7198V7.43066H64.2465V10.7198C64.2465 10.9565 64.2871 11.1514 64.3682 11.3046C64.4494 11.4556 64.5643 11.5672 64.713 11.6393C64.8618 11.7114 65.0375 11.7475 65.2404 11.7475C65.4432 11.7475 65.6178 11.7114 65.7643 11.6393C65.9131 11.5672 66.028 11.4556 66.1092 11.3046C66.1903 11.1514 66.2308 10.9565 66.2308 10.7198V7.43066ZM69.4287 12.3525H68.3774L68.3842 11.6798H69.4287C69.7329 11.6798 69.9876 11.6134 70.1927 11.4804C70.4 11.3475 70.5555 11.157 70.6591 10.9091C70.7651 10.6612 70.8181 10.366 70.8181 10.0235V9.75639C70.8181 9.49046 70.7876 9.25493 70.7268 9.04985C70.6682 8.84477 70.5803 8.67239 70.4631 8.53269C70.3482 8.39296 70.2062 8.28703 70.0372 8.21492C69.8704 8.1428 69.6777 8.10675 69.4592 8.10675H68.3572V7.43066H69.4592C69.7859 7.43066 70.0845 7.48588 70.3549 7.5963C70.6254 7.70448 70.8586 7.8611 71.0547 8.06618C71.253 8.27126 71.4052 8.51693 71.511 8.80308C71.6169 9.08931 71.6699 9.40931 71.6699 9.76316V10.0235C71.6699 10.3772 71.6169 10.6972 71.511 10.9835C71.4052 11.2697 71.253 11.5153 71.0547 11.7204C70.8564 11.9232 70.6198 12.0798 70.3448 12.1903C70.0721 12.2985 69.7668 12.3525 69.4287 12.3525ZM68.8473 7.43066V12.3525H67.9988V7.43066H68.8473Z" fill="black"/>
<defs>
<linearGradient id="paint0_linear_11998_265578" x1="19.193" y1="9.7931" x2="5.84307" y2="22.827" gradientUnits="userSpaceOnUse">
<stop stop-color="#00A0FF"/>
<stop offset="0.00657445" stop-color="#00A1FF"/>
<stop offset="0.2601" stop-color="#00BEFF"/>
<stop offset="0.5122" stop-color="#00D2FF"/>
<stop offset="0.7604" stop-color="#00DFFF"/>
<stop offset="1" stop-color="#00E3FF"/>
</linearGradient>
<linearGradient id="paint1_linear_11998_265578" x1="28.5415" y1="18.7779" x2="9.74372" y2="18.7779" gradientUnits="userSpaceOnUse">
<stop stop-color="#FFE000"/>
<stop offset="0.4087" stop-color="#FFBD00"/>
<stop offset="0.7754" stop-color="#FFA500"/>
<stop offset="1" stop-color="#FF9C00"/>
</linearGradient>
<linearGradient id="paint2_linear_11998_265578" x1="21.542" y1="20.6043" x2="3.4383" y2="38.2794" gradientUnits="userSpaceOnUse">
<stop stop-color="#FF3A44"/>
<stop offset="1" stop-color="#C31162"/>
</linearGradient>
<linearGradient id="paint3_linear_11998_265578" x1="7.92576" y1="3.00388" x2="16.0098" y2="10.8965" gradientUnits="userSpaceOnUse">
<stop stop-color="#32A071"/>
<stop offset="0.0685" stop-color="#2DA771"/>
<stop offset="0.4762" stop-color="#15CF74"/>
<stop offset="0.8009" stop-color="#06E775"/>
<stop offset="1" stop-color="#00F076"/>
</linearGradient>
</defs>
</svg>
